<svg xmlns="http://www.w3.org/2000/svg" xmlns:xlink="http://www.w3.org/1999/xlink" id="Layer_1" x="0px" y="0px" viewBox="0 0 300 300" style="enable-background:new 0 0 300 300;" xml:space="preserve"><style type="text/css">	.st0{fill:#FFFFFF;}	.st1{fill:#ED752C;}	.st2{fill:#FDB233;}</style><g>	<path class="st0" d="M149.9,274.8c-18.6,0-37.2,0-55.8,0c-10.6,0-18.7-4.6-24.1-13.8c-18.7-32.4-37.4-64.8-56.1-97.3  c-5.2-9.1-5.3-18.3,0-27.4c18.7-32.5,37.5-65.1,56.3-97.6c5.3-9.2,13.6-13.6,24.2-13.5c37.1,0,74.2,0,111.3,0  c10.8,0,19,4.4,24.4,13.8c18.7,32.4,37.4,64.8,56.1,97.3c5.2,9.1,5.3,18.3,0,27.4c-18.7,32.5-37.5,65.1-56.3,97.6  c-5.3,9.1-13.4,13.5-23.8,13.5C187.3,274.8,168.6,274.8,149.9,274.8z"></path>	<path class="st1" d="M150.1,227.9c-13.1,0-26.2,0-39.3,0c-1.4,0-2.8,0-4.1-0.3c-5-1-5.4-1.6-5.4-6.7c0-8.4,0-16.7,0-25.1  c0-22.3,17.1-42.5,39-46.6c27.2-5.1,51.6,11.8,57.3,36.8c0.7,3.1,1.2,6.3,1.2,9.6c-0.1,8.9-0.1,17.7,0,26.6c0,2.9-1,4.7-4.1,5.2  c-1.7,0.3-3.4,0.6-5.2,0.6C176.3,227.9,163.2,227.9,150.1,227.9z"></path>	<path class="st1" d="M148.7,144c-18.1,0.6-36.4-16.4-34.7-38.2c1.6-20.3,17.5-33.9,36.3-33.5c21.5,0.4,36.8,17.4,35.6,38.7  C184.9,129.6,168,145.7,148.7,144z"></path>	<path class="st2" d="M189.7,204.8c0,3.9,0,7.7,0,11.6c0,1.9-0.5,2.2-2.6,2.2c-24.7-0.6-49.4-0.5-74.1-0.1c-1.5,0-2.8,0.6-2.7-1.6  c0.3-9.1-0.9-18.2,0.7-27.2c3.4-19.7,21.8-33.7,41.7-32.3c20.6,1.4,37.4,18.7,37,40.3C189.7,200,189.7,202.4,189.7,204.8z"></path>	<path class="st2" d="M123,108.3c0.5-15.3,11.3-26.8,26.9-26.9c15-0.2,27,11.2,27,27.1c0,15.2-11.4,26.8-26.8,26.9  C135.1,135.5,123.5,124.3,123,108.3z"></path></g></svg>