<svg xmlns="http://www.w3.org/2000/svg" xmlns:xlink="http://www.w3.org/1999/xlink" id="Layer_1" x="0px" y="0px" viewBox="0 0 300 300" style="enable-background:new 0 0 300 300;" xml:space="preserve"><style type="text/css">	.st0{fill:#FEFEFE;}	.st1{fill:#ED752C;}	.st2{fill:#FDB233;}</style><g>	<path class="st0" d="M150.3,274.9c-18.7,0-37.5,0.1-56.2,0c-10.4-0.1-18.6-4.4-23.9-13.6c-18.8-32.5-37.5-65-56.3-97.6  c-5.3-9.1-5.3-18.2-0.1-27.4c18.7-32.5,37.5-65.1,56.3-97.6c5.4-9.3,13.7-13.6,24.2-13.7c20,0,40,0.1,60,0.1  c17.2,0,34.5-0.2,51.7-0.1c10.4,0.1,18.6,4.4,23.9,13.5c18.8,32.5,37.5,65.1,56.3,97.6c5.3,9.1,5.3,18.3,0.1,27.4  c-18.7,32.5-37.5,65.1-56.3,97.6c-5.4,9.3-13.7,13.6-24.2,13.7C187.2,275,168.7,274.9,150.3,274.9z"></path>	<path class="st1" d="M204.4,92.3c6,0,11.8,0,17.5,0c4.5,0,6.1,1.5,6.1,6c0,10.4,0,20.7,0,31.1c0,4.8-1.5,6.3-6.2,6.3  c-5,0.1-5,0.1-5,5.1c0,28.4-0.1,56.7,0,85.1c0,7.8,0.1,9.2-9.8,9.5c-12.2,0.3-24.5,0.1-36.7,0.1c-25.2,0-50.5,0-75.7,0  c-0.9,0-1.8,0.1-2.6,0c-7.3-0.9-8.7-0.9-8.7-8.8c0.2-28.9,0-57.7,0.1-86.6c0-3.4-0.8-4.6-4.3-4.4c-5.7,0.3-7-1.3-7-7  c0-10,0-20,0-30c0-5,1.5-6.4,6.5-6.4c8.2,0,16.5,0,24.7,0c2.3,0,3.5,0,2.3-3c-3.6-8.8-0.3-18.5,7.5-23.1c7.1-4.2,18-3.3,24.2,4.4  c4.9,6.1,11.2,11,16.1,17.2c1.4,1.7,2.5,1.4,3.9-0.1c5.6-5.9,11.4-11.6,16.7-17.6c6.5-7.3,17.8-7.9,24.2-3.8  c8.1,5.1,10.7,14.8,6.8,24.4C204.9,91.1,204.7,91.5,204.4,92.3z"></path>	<path class="st2" d="M165.7,164.3c0,19,0,38,0,57c0,5-0.4,5-5.3,4.7c-7.1-0.3-14.2-0.2-21.3,0.1c-4.1,0.2-4.8-0.1-4.8-4.2  c0-38.6,0-77.2-0.1-115.8c0-3,0.6-4.2,3.9-4.1c8,0.2,16,0.2,24,0c3-0.1,3.8,0.9,3.7,3.8C165.7,125.3,165.7,144.8,165.7,164.3z"></path>	<path class="st2" d="M92.3,180.6c0-13.7,0.1-27.5-0.1-41.2c0-2.7,0.6-3.7,3.5-3.7c8.7,0.2,17.5,0.2,26.2,0c2.7,0,3.3,0.9,3.3,3.5  c-0.1,27.7-0.1,55.4,0,83.2c0,3.3-1.3,3.8-4.3,3.7c-8.1-0.4-16.2-0.7-24.3,0.1c-3.4,0.3-4.4-0.4-4.4-4  C92.3,208.3,92.3,194.4,92.3,180.6z"></path>	<path class="st2" d="M174.8,180.4c0-13.6,0.1-27.2-0.1-40.8c0-2.9,0.7-3.9,3.8-3.8c8.5,0.2,17,0.2,25.5,0c2.8-0.1,3.9,0.6,3.9,3.7  c-0.1,27.6-0.1,55.2-0.1,82.8c0,3.5-1,4.3-4.5,3.9c-8.1-0.8-16.2-0.5-24.3-0.1c-3,0.2-4.3-0.4-4.3-3.7  C174.8,208.3,174.8,194.3,174.8,180.4z"></path>	<path class="st2" d="M103.3,101.3c6.2,0,12.5,0.1,18.7,0c2.3,0,3.4,0.5,3.3,3.1c-0.2,6.5-0.1,13,0,19.5c0,2.3-0.7,3.1-3,3  c-12.7-0.1-25.4-0.1-38.2,0c-2.5,0-3.2-0.9-3.1-3.3c0.1-6.4,0.1-12.7,0-19.1c-0.1-2.4,0.7-3.3,3.2-3.2  C90.5,101.4,96.9,101.3,103.3,101.3z"></path>	<path class="st2" d="M196.9,126.8c-6.2,0-12.5-0.1-18.7,0c-2.4,0-3.6-0.5-3.5-3.3c0.2-6.4,0.1-12.7,0-19.1  c-0.1-2.4,0.7-3.3,3.2-3.2c12.7,0.1,25.4,0.1,38.2,0c2.3,0,3,0.8,3,3.1c-0.1,6.4-0.1,12.7,0,19.1c0.1,2.6-0.7,3.5-3.4,3.4  C209.4,126.6,203.2,126.8,196.9,126.8z"></path>	<path class="st2" d="M166.5,91.5c5.3-5.7,10-10.9,14.9-15.9c3.1-3.2,8.5-3.9,11.7-1.9c3.7,2.2,5.8,6.8,4.8,10.5  c-1.3,4.6-4.9,7.3-10,7.3C180.9,91.6,174.1,91.5,166.5,91.5z"></path>	<path class="st2" d="M144.3,91.5c-8.4,0-15.7,0.1-23,0c-3,0-7-3.6-7.9-6.6c-1-3.5,0.5-8.3,3-10.2c3-2.2,8.5-2.9,10.9-0.7  C133,79.3,138.8,84.6,144.3,91.5z"></path></g></svg>