<svg xmlns="http://www.w3.org/2000/svg" xmlns:xlink="http://www.w3.org/1999/xlink" id="Layer_1" x="0px" y="0px" viewBox="0 0 300 300" style="enable-background:new 0 0 300 300;" xml:space="preserve"><style type="text/css">	.st0{fill:#FFFFFF;}	.st1{fill:#ED752C;}	.st2{fill:#FDB233;}</style><g>	<path class="st0" d="M148.7,25.2c19.1,0,38.2-0.1,57.3,0c10.6,0.1,18.7,4.6,24.1,13.9c18.6,32.3,37.2,64.6,55.9,96.9  c5.4,9.4,5.4,18.6,0,28c-18.7,32.3-37.3,64.6-55.9,96.9c-5.4,9.4-13.7,13.9-24.4,13.9c-37.1,0-74.2,0-111.3,0  c-10.7,0-19-4.5-24.4-13.9C51.3,228.7,32.7,196.3,14,164c-5.4-9.4-5.4-18.6,0-28c18.7-32.3,37.3-64.6,55.9-96.9  c5.3-9.2,13.5-13.8,24.1-13.9C112.2,25.1,130.4,25.2,148.7,25.2z"></path>	<path class="st1" d="M149.8,220.5c-27.4,0-54.7,0-82.1,0c-5.9,0-6.9-1.1-6.9-7c0-36.7,0.1-73.5-0.1-110.2c0-4.1,1.5-5.9,5.4-7  c35-9.6,70-19.4,105-29.1c11.7-3.3,23.5-6.5,35.2-9.7c4.9-1.4,7.3,0.5,7.3,5.7c0,10.1,0.1,20.2,0,30.4c0,2.6,0.8,3.5,3.4,3.4  c5.4-0.2,10.7-0.1,16.1,0c4.5,0,6,1.6,6,6.1c0,10.2,0.1,20.5-0.1,30.7c-0.1,3.2,0.8,4.5,4.2,4.4c5.5-0.2,6.3,0.8,6.3,6.2  c0,10,0,20,0,30c0,4.5-1.3,6-5.8,5.7c-3.8-0.3-4.9,0.9-4.8,4.7c0.3,9.7,0.1,19.5,0.1,29.2c0,5.3-1.2,6.6-6.6,6.6  C205,220.5,177.4,220.5,149.8,220.5z"></path>	<path class="st2" d="M149.9,211.5c-25.2,0-50.5,0-75.7,0.1c-3.2,0-4.5-0.5-4.5-4.2c0.2-32.5,0.1-65,0-97.4c0-3.4,0.9-4.2,4.2-4.2  c50.7,0.1,101.4,0.1,152.2,0c3.2,0,4.4,0.6,4.3,4.1c-0.3,8.4-0.1,16.7-0.1,25.1c0,1.7-0.2,2.3-2.3,2.6c-5.9,0.8-11.7,0.3-17.6,0.4  c-8.5,0.1-17,0-25.5,0.1c-3.1,0-6-1.4-9.2-0.2c-2.6,0.9-4,2.3-3.9,5.1c0.1,10.7,0,21.5,0,32.2c0,3.6,1.6,4.9,5.5,4.9  c16.4,0,32.7,0.1,49.1-0.1c3.1,0,4.1,0.9,4,4c-0.2,7.9-0.2,15.7,0,23.6c0.1,3.1-0.8,4-4,4C200.9,211.4,175.4,211.5,149.9,211.5z"></path>	<path class="st2" d="M100.5,96.3c9.2-2.6,18.3-5.2,27.5-7.7c23.6-6.6,47.2-13.1,70.8-19.7c6-1.7,6-1.8,6,4.4c0,6.9,0,13.7,0,20.6  c0,2-0.5,2.9-2.7,2.9c-33.8,0-67.7,0-101.5,0C100.5,96.6,100.5,96.5,100.5,96.3z"></path>	<path class="st2" d="M210.7,171c-8.9,0-17.7-0.1-26.6,0c-2.5,0-3.6-0.6-3.5-3.3c0.2-6,0.1-12,0-18c-0.1-2.6,0.9-3.5,3.5-3.5  c14.2,0.1,28.5-0.1,42.7,0.1c4.1,0.1,8.2,0.8,12.3,0.4c1.6-0.2,1.5,0.8,1.5,1.8c0,6.6-0.1,13.2,0,19.8c0,2.4-1.2,2.6-3.1,2.6  C228.7,171,219.7,171,210.7,171z"></path>	<path class="st1" d="M227,153c2.9-0.1,5.4,2.3,5.5,5.3c0.1,2.9-2.3,5.7-5,5.9c-2.7,0.2-6-2.9-6-5.5  C221.5,155.4,223.7,153.1,227,153z"></path></g></svg>