<svg xmlns="http://www.w3.org/2000/svg" xmlns:xlink="http://www.w3.org/1999/xlink" id="Layer_1" x="0px" y="0px" viewBox="0 0 300 300" style="enable-background:new 0 0 300 300;" xml:space="preserve"><style type="text/css">	.st0{fill:#FFFFFF;}	.st1{fill:#ED752C;}	.st2{fill:#FDB233;}</style><g>	<path class="st0" d="M150.1,274.8c-18.6,0-37.2,0-55.8,0c-11.3,0-19.3-5.2-24.9-15c-18.1-31.6-36.3-63.2-54.6-94.7  c-5.9-10.1-6-19.9-0.1-30c18.3-31.4,36.5-62.8,54.4-94.4C75.5,29.4,84.8,25,97.4,25c35.5,0.2,70.9,0.3,106.4,0.1  c12.3-0.1,21.2,4.5,27.3,15.4c18,31.7,36.3,63.2,54.6,94.7c5.8,10,5.8,19.7-0.1,29.7c-18.5,31.8-36.9,63.7-55.2,95.6  c-5.6,9.7-13.8,14.3-24.9,14.3C187.1,274.8,168.6,274.8,150.1,274.8C150.1,274.8,150.1,274.8,150.1,274.8z"></path>	<path class="st1" d="M150.2,83.3c25.9,0,51.7,0,77.6,0c5,0,6.2,1.2,6.2,6.1c0,31.6,0,63.2,0,94.8c0,5.2-1.1,6.3-6.4,6.3  c-18.6,0-37.2,0.1-55.8-0.1c-3,0-3.8,0.9-3.8,3.8c0.2,6.7,0.1,13.5,0,20.2c0,2.3,0.7,3.2,3,3c1.4-0.1,2.7,0,4.1,0  c3,0,4.8,1.4,4.9,4.4c0,3.3-1.9,4.6-5,4.6c-5.4,0-10.7,0-16.1,0c-11,0-22,0-33,0c-4.1,0-6-1.5-5.8-4.6c0.2-3.6,2.5-4.4,5.6-4.4  c6.4,0,6.4,0,6.4-6.3c0-5.5-0.2-11,0.1-16.5c0.1-3.2-0.7-4.3-4.1-4.2c-18.2,0.2-36.5,0.1-54.7,0.1c-6,0-7.2-1.3-7.2-7.2  c0-31,0-62,0-92.9c0-5.8,1.3-7.1,7-7.1C98.8,83.3,124.5,83.3,150.2,83.3z"></path>	<path class="st2" d="M149.8,181.5c-23.6,0-47.2-0.1-70.8,0.1c-3,0-4.1-0.7-4-3.9c0.1-27.2,0.1-54.5,0-81.7c0-3,1-3.7,3.8-3.7  c47.5,0.1,94.9,0.1,142.4,0c2.8,0,3.9,0.6,3.9,3.7c-0.1,27.2-0.1,54.5,0,81.7c0,3.2-1,4-4,3.9C197.3,181.4,173.6,181.5,149.8,181.5  z"></path>	<path class="st2" d="M141,204c0-3.6,0.1-7.2,0-10.8c0-1.9,0.6-2.7,2.6-2.7c4.4,0.1,8.7,0.1,13.1,0c1.8,0,2.4,0.8,2.4,2.5  c0,7.4,0,14.7,0,22.1c0,1.7-0.6,2.5-2.4,2.5c-4.4-0.1-8.7-0.1-13.1,0c-2,0-2.6-0.8-2.6-2.7C141.1,211.2,141,207.6,141,204z"></path>	<path class="st1" d="M150,168c-16.5,0-30-13.4-30-29.9c0-16.7,13.4-30.1,30.2-30.1c16.4,0,29.8,13.5,29.8,30.1  C180,154.6,166.5,168,150,168z"></path>	<path class="st2" d="M150.1,117c11.6,0,21,9.6,20.9,21.3c-0.1,11.4-9.6,20.7-21.1,20.7c-11.6,0-21-9.6-20.9-21.3  C129.1,126.3,138.6,117,150.1,117z"></path>	<path class="st1" d="M141,138.1c0-2.7-0.1-5.5,0-8.2c0.2-3.3,2.2-4.4,5-2.9c4.8,2.6,9.6,5.2,14.3,8c2.9,1.7,3.1,4.3,0.2,6.1  c-4.7,3-9.6,5.7-14.5,8.4c-2.6,1.4-4.9-0.1-5-3.2C140.9,143.6,141,140.9,141,138.1z"></path></g></svg>