<svg xmlns="http://www.w3.org/2000/svg" id="Layer_1" data-name="Layer 1" viewBox="0 0 157.45 50"><defs><style>      .cls-1 {        fill: #fff;      }      .cls-2 {        fill: #f9a01b;      }      .cls-3 {        fill: #231f20;      }    </style></defs><rect class="cls-2" x="111.64" y="8.29" width="33.29" height="33.08" rx="5.48" ry="5.48"></rect><g><path class="cls-1" d="M137.98,10.48h-19.38c-2.63,0-4.76,2.13-4.76,4.76v19.19c0,.16,0,.32,.02,.47,0,.01,0,.03,0,.04,.25,2.39,2.27,4.25,4.73,4.25h19.38c2.63,0,4.76-2.13,4.76-4.76V15.24c0-2.63-2.13-4.76-4.76-4.76Zm4.75,19.59h-9.11l-2.65,2.43h9.89v2.11c0,1.49-1.21,2.7-2.7,2.7h-19.74c-1.38,0-2.52-1.04-2.68-2.37-.01-.11-.02-.22-.02-.33V15.06c0-1.49,1.21-2.7,2.7-2.7h19.74c1.49,0,2.7,1.21,2.7,2.7v11.95l1.87,3.06Z"></path><path class="cls-1" d="M140.86,22.41l-4.64-7.68h-10.08l-10.42,17.13-1.85,3.04-.02,.04h10.36l6.95-11.41,2.5,4.11h2.85l-6.38-10.48h4.73l6.01,9.85,1.87,3.06h-9.33c-1.34,0-2.43,1.09-2.43,2.43h0s9.89,0,9.89,0h1.87s0-7,0-7l-1.87-3.1Zm-18.03,10.11h-4.68l9.23-15.17,2.34,3.84-6.9,11.33Z"></path></g><g><path class="cls-3" d="M13.38,26.06h2.72v4.44c0,.57,.2,1.06,.6,1.46s.89,.61,1.46,.61h4.38c.26,0,.49-.09,.67-.28,.18-.19,.27-.41,.27-.66s-.09-.47-.27-.65c-.18-.18-.41-.27-.67-.27h-3.61v-2.34h3.55c1.11,0,2.02,.29,2.74,.88,.72,.59,1.08,1.38,1.08,2.39,0,.69-.17,1.33-.51,1.91-.34,.58-.8,1.04-1.38,1.38-.58,.34-1.22,.51-1.93,.51h-4.33c-.87,0-1.67-.21-2.4-.64-.73-.43-1.31-1.01-1.74-1.74-.43-.73-.64-1.53-.64-2.4v-4.59Zm5.25,4.65v-2.85h8.39c.13,0,.19,.06,.19,.19v2.48c0,.13-.06,.19-.19,.19h-8.39Z"></path><path class="cls-3" d="M26.84,30.52v-2.48c0-.13,.06-.19,.19-.19h1.25c.24,0,.44-.08,.61-.25,.17-.17,.25-.38,.25-.63v-1.21h2.17v1.38c0,1.03-.27,1.89-.8,2.56-.54,.67-1.28,1.01-2.24,1.01h-1.25c-.13,0-.19-.06-.19-.19Zm4.22-.33c-.6-.37-1.07-.87-1.41-1.5-.34-.63-.51-1.32-.51-2.08v-1.23h-1.17v-2.7h5.1c.76,0,1.45,.17,2.08,.51,.63,.34,1.13,.81,1.5,1.41,.37,.6,.56,1.27,.56,2.01s-.19,1.43-.56,2.07c-.37,.64-.88,1.14-1.51,1.51-.64,.37-1.33,.56-2.07,.56s-1.42-.19-2.01-.56Zm2.92-2.67c.24-.25,.36-.55,.36-.92s-.12-.65-.36-.88c-.24-.23-.54-.35-.91-.35h-1.25v1.23c0,.37,.12,.67,.35,.92,.23,.25,.53,.37,.9,.37s.67-.12,.91-.37Z"></path><path class="cls-3" d="M38.63,27.85h4.73c.28,0,.5-.08,.67-.25,.17-.16,.25-.37,.25-.62,0-.18-.05-.33-.16-.46-.11-.13-.3-.29-.58-.48l-3.97-2.72,1.53-2.25,4.42,3.06c.48,.37,.84,.77,1.09,1.2,.25,.44,.37,.96,.37,1.58,0,.71-.17,1.35-.52,1.93-.35,.58-.82,1.04-1.41,1.37-.59,.33-1.23,.5-1.93,.5h-4.5v-2.85Z"></path><path class="cls-3" d="M50.22,30.23c-.54-.32-.97-.76-1.29-1.3-.32-.55-.47-1.14-.47-1.79v-9.17h2.72v9c0,.25,.08,.46,.25,.63,.16,.17,.37,.25,.6,.25h1.04c.12,0,.19,.06,.19,.19v2.48c0,.13-.06,.19-.19,.19h-1.06c-.66,0-1.25-.16-1.8-.48Z"></path><path class="cls-3" d="M53.07,27.85h4.25c.34,0,.63-.11,.87-.34s.36-.53,.36-.91c0-.45-.21-.81-.64-1.08l-4.27-2.82v-2.06l3.76-4.01,1.87,1.76-2.82,2.93,3.14,2.06c.53,.34,.94,.8,1.24,1.37,.3,.57,.44,1.21,.44,1.9,0,.73-.18,1.41-.54,2.02s-.84,1.11-1.45,1.47c-.6,.37-1.27,.55-2,.55h-4.21c-.13,0-.19-.06-.19-.19v-2.48c0-.13,.06-.19,.19-.19Z"></path><path class="cls-3" d="M60.49,15.67c.37-.35,.83-.52,1.37-.52h4.78v2.06h-4.42c-.15,0-.27,.04-.36,.12-.09,.08-.13,.21-.13,.37v.91h-1.8v-1.55c0-.58,.19-1.04,.56-1.39Zm2.07,3.05h2.72v11.98h-2.72v-11.98Z"></path><path class="cls-3" d="M70.12,23.66h2.72v2.12c0,.57,.2,1.06,.6,1.46,.4,.41,.89,.61,1.46,.61h6.01c.37,0,.66-.12,.9-.37s.35-.55,.35-.92v-2.91h2.72v3.31c0,.25,.08,.46,.25,.63s.37,.25,.62,.25h.79c.13,0,.19,.06,.19,.19v2.48c0,.13-.06,.19-.19,.19h-.79c-.97,0-1.75-.35-2.33-1.04-.67,.69-1.51,1.04-2.51,1.04h-6.01c-.87,0-1.67-.21-2.4-.64s-1.31-1.01-1.74-1.74c-.43-.73-.64-1.53-.64-2.4v-2.27Zm4.5-2.44h2.42v2.44h-2.42v-2.44Zm3.4,0h2.42v2.44h-2.42v-2.44Z"></path><path class="cls-3" d="M86.55,27.85h4.25c.34,0,.63-.11,.87-.34s.36-.53,.36-.91c0-.45-.21-.81-.64-1.08l-4.27-2.82v-2.06l3.76-4.01,1.87,1.76-2.82,2.93,3.14,2.06c.53,.34,.94,.8,1.24,1.37,.3,.57,.44,1.21,.44,1.9,0,.73-.18,1.41-.54,2.02s-.84,1.11-1.45,1.47c-.6,.37-1.27,.55-2,.55h-4.21c-.13,0-.19-.06-.19-.19v-2.48c0-.13,.06-.19,.19-.19Z"></path><path class="cls-3" d="M96.2,17.97h2.72v12.74h-2.72v-12.74Z"></path><path class="cls-3" d="M99.74,32.54c.38-.31,.63-.66,.76-1.02,.12-.37,.19-.89,.19-1.59v-6.27h2.72v6.27c0,1.06-.13,1.93-.4,2.61-.26,.68-.72,1.29-1.36,1.82s-1.58,1.11-2.8,1.71l-1.02-2.29c.89-.52,1.53-.93,1.91-1.25Zm-.57-12.93h2.42v2.42h-2.42v-2.42Zm1.64-3.4h2.42v2.44h-2.42v-2.44Zm1.62,3.4h2.42v2.42h-2.42v-2.42Z"></path></g></svg>