<svg xmlns="http://www.w3.org/2000/svg" id="Layer_1" data-name="Layer 1" viewBox="0 0 400 400"><defs><style>      .cls-1 {        fill: none;        stroke: #4e4d4d;        stroke-miterlimit: 10;        stroke-width: 7.5px;      }      .cls-2 {        fill: #4e4d4d;      }      .cls-3 {        fill: #fea000;      }    </style></defs><path class="cls-3" d="M280.71,23.33H119.29c-13.18,0-25.35,7.03-31.94,18.44L6.65,181.56C.06,192.97,.06,207.03,6.65,218.44l80.71,139.79c6.59,11.41,18.76,18.44,31.94,18.44h161.41c13.18,0,25.35-7.03,31.94-18.44l80.71-139.79c6.59-11.41,6.59-25.47,0-36.88L312.65,41.77c-6.59-11.41-18.76-18.44-31.94-18.44Z"></path><g><path class="cls-2" d="M142.9,289.12c-.05,.52,.17,1.03,.58,1.35,.4,.29,.88,.44,1.37,.43,.55,.06,1.1-.09,1.54-.43,.33-.37,.49-.86,.45-1.35v-3.32h3.98v3.32c-.04,.5,.12,.99,.46,1.35,.31,.29,.72,.44,1.14,.43,1.04,0,1.54-.59,1.54-1.78v-3.32h4.02v3.32c-.04,.52,.17,1.02,.57,1.35,.4,.29,.88,.44,1.38,.43h.89c.28,0,.46,.17,.55,.51,.12,.52,.17,1.06,.15,1.6,.02,.58-.03,1.16-.15,1.72-.09,.36-.28,.54-.55,.54h-.87c-.76,0-1.52-.12-2.24-.36-.76-.31-1.38-.87-1.78-1.58-.4,.7-1.02,1.25-1.75,1.58-.56,.22-1.15,.35-1.75,.36-.68,0-1.35-.12-1.98-.36-.72-.34-1.32-.89-1.72-1.58-.41,.7-1.04,1.26-1.78,1.58-.61,.23-1.26,.35-1.91,.36-.84,.06-1.66-.24-2.26-.83v.32c0,1.07-.18,2.13-.55,3.13-.34,.97-.86,1.86-1.54,2.63-.7,.76-1.55,1.38-2.49,1.8-1.04,.46-2.17,.69-3.31,.67h-2.13c-2.08,.12-4.12-.68-5.55-2.2-1.32-1.47-1.98-3.47-1.98-6.03v-5.8h4.01v5.61c0,.56,.06,1.13,.19,1.68,.11,.47,.34,.91,.65,1.28,.34,.37,.77,.65,1.25,.81,.63,.21,1.3,.3,1.96,.28h1.4c.7,.02,1.4-.09,2.05-.34,.5-.19,.95-.51,1.29-.92,.32-.4,.55-.86,.68-1.35,.13-.53,.19-1.08,.19-1.63v-8.58h4.01v3.32Z"></path><path class="cls-2" d="M163.79,290.87c.48,.04,.96-.11,1.32-.43,.3-.39,.44-.87,.4-1.35v-3.29h4.05v3.67c0,1.94-.46,3.39-1.39,4.36-1.09,1.02-2.55,1.54-4.04,1.45h-3.34c-.28,0-.46-.17-.56-.52-.11-.52-.16-1.05-.15-1.58-.02-.59,.03-1.17,.15-1.74,.1-.35,.28-.52,.56-.52l2.99-.03Zm.67,11.53h-3.84v-3.7h3.84v3.7Zm4.91,0h-3.84v-3.7h3.84v3.7Z"></path><path class="cls-2" d="M175.71,298.62c1.12,.11,2.23-.24,3.07-.98,.62-.65,1-1.48,1.08-2.38h-1.54c-.92,.03-1.83-.09-2.71-.35-.64-.2-1.21-.56-1.66-1.05-.41-.49-.7-1.08-.85-1.71-.17-.76-.25-1.53-.24-2.31,0-.81,.11-1.61,.35-2.38,.21-.72,.56-1.38,1.04-1.96,.47-.56,1.06-1.01,1.72-1.32,.75-.35,1.58-.52,2.41-.5,.7,0,1.4,.12,2.06,.35,.65,.23,1.23,.62,1.71,1.11,.53,.58,.92,1.27,1.16,2.01,.31,.98,.45,2,.43,3.03v4.56c0,1.07-.18,2.13-.54,3.13-.34,.97-.86,1.86-1.54,2.63-.69,.77-1.54,1.38-2.48,1.8-1.05,.46-2.18,.69-3.32,.67h-3.12l-.19-4.37h3.15Zm1.05-9.09c-.04,.39,.08,.77,.34,1.07,.37,.24,.82,.35,1.26,.3h1.54v-.89c.06-.58-.08-1.17-.4-1.66-.32-.32-.77-.49-1.22-.45-1,0-1.51,.54-1.51,1.63h0Z"></path><path class="cls-2" d="M193.45,289.12c-.05,.52,.16,1.02,.56,1.35,.4,.29,.89,.43,1.38,.4h.35c.47,0,.7,.7,.7,2.11s-.23,2.26-.7,2.26h-.35c-.37,0-.74-.06-1.1-.17-.4-.14-.75-.39-1.01-.72v.38c0,1.07-.18,2.13-.55,3.13-.35,.96-.87,1.85-1.54,2.63-.67,.75-1.48,1.37-2.39,1.8-.96,.46-2.01,.68-3.07,.67h-.77l-.32-4.37h.42c.69,.02,1.38-.1,2.02-.34,.52-.19,.98-.49,1.38-.88,.34-.35,.6-.76,.77-1.22,.16-.46,.24-.94,.24-1.42v-8.93h4.05l-.07,3.32Z"></path><path class="cls-2" d="M197.31,290.87c.84,.13,1.63-.44,1.76-1.28,.03-.17,.02-.34,0-.5v-3.29h4.02v3.32c-.05,.52,.16,1.02,.56,1.35,.86,.57,1.99,.57,2.85,0,.33-.37,.49-.86,.45-1.35v-3.32h4.05v3.32c-.04,.5,.12,.99,.46,1.35,.29,.28,.69,.44,1.1,.43,1.05,0,1.54-.59,1.54-1.78v-3.32h4.04v3.67c0,1.94-.46,3.39-1.4,4.36-1.09,1.02-2.56,1.55-4.05,1.45-.69,0-1.37-.12-2.02-.36-.76-.32-1.39-.87-1.81-1.58-.42,.71-1.05,1.27-1.81,1.58-.67,.24-1.37,.36-2.08,.36-.75,0-1.49-.12-2.2-.36-.76-.31-1.4-.87-1.82-1.58-.4,.69-.99,1.24-1.71,1.58-.62,.24-1.29,.37-1.96,.36h-1.59c-.28,0-.46-.17-.56-.52-.11-.52-.16-1.05-.15-1.58-.02-.59,.03-1.17,.15-1.74,.1-.35,.28-.52,.56-.52l1.62-.03Z"></path><path class="cls-2" d="M242.28,293.58c.8,.06,1.59-.21,2.2-.73,.52-.51,.8-1.22,.77-1.94v-4.69h1.65v4.66c-.02,.44,.07,.88,.26,1.28,.16,.32,.39,.61,.67,.83,.27,.21,.59,.36,.92,.45,.33,.08,.68,.12,1.02,.12h.48c.21-.03,.43,.06,.56,.23,.1,.18,.15,.39,.14,.6,.02,.23-.03,.45-.14,.65-.14,.16-.35,.23-.56,.21h-.51c-.74,0-1.47-.14-2.14-.45-.72-.33-1.29-.9-1.63-1.61-.37,.71-.96,1.29-1.68,1.65-.63,.3-1.32,.45-2.02,.45h-11.52c-.77,.02-1.53-.11-2.24-.39-1.17-.46-2.06-1.43-2.4-2.64-.18-.61-.27-1.25-.27-1.88v-4.18h1.54v3.84c-.05,.94,.25,1.86,.85,2.6,.77,.72,1.81,1.07,2.86,.97l11.2-.02Zm-6.76-10.23h-2.2v-1.91h2.2v1.91Zm3.84,0h-2.2v-1.91h2.2v1.91Z"></path><path class="cls-2" d="M258.54,297.92l.42,1.02-7.24,3.07-.42-1.02,7.24-3.07Z"></path><path class="cls-2" d="M258.83,293.58c.82,.09,1.65-.14,2.31-.65,.43-.45,.66-1.05,.64-1.67,0-.45-.08-.9-.21-1.33-.24-.66-.64-1.24-1.16-1.71l-7.24-7.23v-1.69l10.59-4.24,.45,1.59-9.41,3.77,6.15,6.15c.46,.44,.88,.92,1.28,1.41,.3,.37,.56,.77,.77,1.2,.17,.35,.29,.72,.36,1.1,.07,.37,.1,.75,.1,1.13,.09,1.12-.36,2.22-1.23,2.94-.95,.65-2.09,.98-3.24,.92h-8.76c-.21,.03-.42-.05-.55-.21-.11-.17-.16-.38-.15-.58-.02-.23,.03-.46,.15-.67,.13-.17,.34-.26,.55-.23h8.61Z"></path><path class="cls-2" d="M267.73,275.5h1.59v19.77h-1.59v-19.77Z"></path><path class="cls-2" d="M277.08,298.19c-.36,.96-.91,1.83-1.61,2.58-.68,.71-1.5,1.27-2.41,1.65-.96,.38-1.98,.58-3.01,.57h-1.82l-.16-1.65h1.63c.98,.02,1.96-.16,2.87-.55,.77-.33,1.45-.83,2-1.46,.52-.61,.91-1.33,1.15-2.1,.25-.8,.37-1.64,.37-2.48v-8.54h1.56v8.55c.03,1.17-.16,2.33-.56,3.43Zm-1.58-16.19h-2.2v-1.89h2.2v1.89Zm1.94-3.54h-2.23v-1.91h2.23v1.91Zm1.88,3.54h-2.2v-1.89h2.2v1.89Z"></path><rect class="cls-1" x="120.48" y="103.54" width="159.04" height="159.04" rx="18.12" ry="18.12"></rect><path class="cls-2" d="M239.05,184.45l-69.99-42.64,52.96-32.29v19.92l-14.09,8.59c-1.52,.93-2.44,2.58-2.44,4.36h0c0,2.82,2.29,5.1,5.11,5.1,.94,0,1.85-.26,2.65-.75l18.99-11.58v-25.61h0v-5.47c.01-3.9-3.14-7.07-7.04-7.08-1.32,0-2.61,.36-3.73,1.05l-2.1,1.28-58.42,35.56c-2.1,1.28-3.38,3.57-3.39,6.03v33.5c0,2.46,1.29,4.75,3.39,6.03l44.54,27.11-14.81,9c-1.52,.93-2.45,2.58-2.45,4.37h0c0,2.82,2.29,5.1,5.11,5.1,.93,0,1.85-.26,2.65-.74l36.24-22.04v19.86l-41.6,25.37-.05,.04-12.01,7.35h0l-.39,.24-.17,.11v-40.34c0-1.78-.93-3.43-2.44-4.36h0c-2.41-1.46-5.55-.7-7.01,1.71-.49,.8-.74,1.71-.74,2.65v30.05h-.08v16.14c0,3.9,3.15,7.06,7.04,7.07,1.31,0,2.6-.36,3.72-1.05l19.4-11.88,16.73-10.3h-.24l24.68-14.98c2.11-1.28,3.39-3.56,3.39-6.03v-34.41c0-2.46-1.28-4.75-3.39-6.03Zm-23.75,17.13l-47.52-28.97v-19.63l63.66,38.77-16.14,9.83Z"></path></g></svg>