<svg xmlns="http://www.w3.org/2000/svg" id="Layer_1" data-name="Layer 1" viewBox="0 0 400 400"><defs><style>      .cls-1, .cls-2 {        fill: #4d4d4d;      }      .cls-3 {        fill: none;        stroke: #4d4d4d;        stroke-miterlimit: 2.61;        stroke-width: .15px;      }      .cls-2 {        fill-rule: evenodd;      }      .cls-4 {        fill: #fea000;      }    </style></defs><path class="cls-4" d="M280.71,23.33H119.29c-13.18,0-25.35,7.03-31.94,18.44L6.65,181.56C.06,192.97,.06,207.03,6.65,218.44l80.71,139.79c6.59,11.41,18.76,18.44,31.94,18.44h161.41c13.18,0,25.35-7.03,31.94-18.44l80.71-139.79c6.59-11.41,6.59-25.47,0-36.88L312.65,41.77c-6.59-11.41-18.76-18.44-31.94-18.44Z"></path><g><path class="cls-2" d="M82.69,276.02h-.12c-1.88,0-3.4-1.52-3.4-3.4s1.51-3.39,3.37-3.4h0s.03,0,.03,0h107v6.81H82.69Z"></path><rect class="cls-1" x="119.03" y="142.32" width="14.14" height="14.14" transform="translate(-68.7 132.92) rotate(-45)"></rect><rect class="cls-1" x="119.03" y="162.28" width="14.14" height="14.14" transform="translate(-82.81 138.77) rotate(-45)"></rect><rect class="cls-1" x="303.94" y="142.32" width="14.14" height="14.14" transform="translate(-14.54 263.67) rotate(-45)"></rect><rect class="cls-1" x="303.94" y="162.28" width="14.14" height="14.14" transform="translate(-28.66 269.52) rotate(-45)"></rect><path class="cls-2" d="M178.73,261.87v-20.62h-5.26v-3.21h16.07v3.21h-5.26v20.62h-5.54Zm-20,0v-23.83h12.37v3.21h-6.84v6.93h6.47v3.21h-6.47v7.26h7.2v3.21h-12.74Zm-18.93,0v-23.83h5.54v23.83h-5.54Zm11.12,0l-5.32-11.75,5.9-12.09h2.91l-4.27,8.72,6.9,15.12h-6.12Zm-32.78,0l6.78-23.83h5.35l7.24,23.83h-5.88l-2.08-7.04h-6.63l-1.96,7.04h-2.81Zm5.63-10.07h4.88l-2.56-8.54-2.32,8.54Zm-13.47-3.58v-10.18h5.54v23.83h-5.54v-10.44h-5.93v10.44h-5.54v-23.83h5.54v10.18h5.93Z"></path><polygon class="cls-2" points="79.81 241.25 79.81 238.04 96.42 238.04 86.92 258.66 95.84 258.66 95.84 261.87 79.26 261.87 88.74 241.25 79.81 241.25"></polygon><polygon class="cls-3" points="198.6 189.4 241.88 220.28 255.3 208.86 260.64 202.06 198.6 157.8 198.6 189.4"></polygon><path class="cls-2" d="M203.86,184.71l40.54,28.94,.06,.04v.07s-.63,7.83-.63,7.83l-.02,.22-.18-.13-46.81-33.31-.05-.04v-28.81h.11s3.49-.5,3.49-.5l.09,.02,60.26,42.91,.05,.04v31.67l-.19-.14c-6.9-4.93-6.56-7.27-6.23-9.44,.17-1.13,.33-2.22-.64-3.62l-.02-.07v-11.04l.02-.07,1.71-2.3-1.68-1.33-49.86-35.49v14.53Z"></path><polygon class="cls-1" points="196.83 158.89 260.57 113.44 260.77 113.3 260.77 113.54 260.77 145.14 260.77 145.21 260.72 145.24 230.42 166.97 230.22 167.11 230.22 166.87 230.22 158.48 230.22 158.42 230.27 158.38 253.68 141.58 253.68 127.04 205.21 161.6 205.21 161.6 204.09 162.44 202.48 173.57 202.25 184.36 202.25 184.48 202.13 184.48 196.9 184.68 196.78 184.68 196.78 184.56 196.77 158.99 196.77 158.93 196.83 158.89"></polygon><path class="cls-2" d="M196.75,207.26v-.26s-.27,0-.27,0H120.08s-.82,.02-.82,.02h0s0,0,0,0h0c-4.76,.1-10.28,.22-15.02-.92h0l-.11-.03h0c-3.18-.82-6.2-2.14-8.92-3.94-2.66-1.75-5.05-3.96-7.03-6.57-.43-.57-.84-1.16-1.23-1.76-.3-.46-.58-.93-.85-1.41,.13,3.22,.7,6.31,1.67,9.22,1.03,3.1,2.51,6,4.4,8.6,2.02,2.78,4.5,5.24,7.4,7.27,2.83,1.98,6.04,3.57,9.59,4.66,.64,.2,1.38,.38,2.17,.55,.87,.18,1.81,.35,2.76,.49,1.09,.16,2.13,.29,3.07,.38,.92,.09,1.75,.14,2.41,.16v-.02h70.1v7.09H119.7c-1.72-.02-4.16-.23-6.63-.6-2.11-.32-4.25-.75-5.99-1.29-8.72-2.68-15.79-7.83-20.65-14.53-4.91-6.77-7.58-15.14-7.42-24.17,.15-8.41,2.87-15.77,7.05-21.73,4.75-6.77,11.39-11.72,18.24-14.31l.17-.06v2.49l-.08,.03c-4.56,1.7-8.28,4.57-10.88,8.16-2.64,3.63-4.14,7.99-4.2,12.58,.05,5.58,1.76,10.28,4.53,13.93,3.02,3.98,7.3,6.71,12.04,7.93,3.86,.93,8.9,.82,13.25,.72l.82-.02h76.94s.07,0,.07,0h0c1.99,.1,3.72,.9,4.94,2.18,1.24,1.3,1.98,3.09,1.98,5.13l.02,58.4,49.78-35.55v-14.53l-42.53,30.35-.19,.14v-8.69l.05-.04,49.38-35.24,.05-.02,.19-.03,.14-.02v31.71l-.05,.04-57.4,41.03c-.66,.56-1.38,1.02-2.16,1.23-.79,.21-1.64,.16-2.55-.3h0c-.65-.38-1.11-.88-1.4-1.44-.33-.62-.46-1.31-.44-2.03v-65s0,0,0,0Z"></path><path class="cls-1" d="M267.79,237.44l42.99-30.68,.19-.14v31.91l-.05,.04-51.15,36.62s-.06,.05-.1,.08c-.84,.69-1.8,.96-2.7,.88-.9-.07-1.74-.49-2.34-1.17h0s-.07-.08-.07-.08h0c-.05-.06-.1-.12-.14-.18-.52-.69-.76-1.56-.68-2.42,.08-.86,.49-1.72,1.25-2.38,.07-.06,.14-.12,.22-.17h0s5.3-3.79,5.3-3.79l.2-.14v.02s43.16-30.92,43.16-30.92v-14.53l-35.95,25.66-.19,.14v-8.69l.05-.04Z"></path><polygon class="cls-1" points="286.77 206.51 286.72 135.28 274.83 143.82 274.86 191.69 274.86 191.75 274.8 191.79 267.99 196.67 267.8 196.8 267.8 196.57 267.77 140.25 267.77 140.19 267.82 140.16 293.57 121.66 293.77 121.52 293.77 121.76 293.84 210.07 293.84 210.13 293.79 210.17 268.03 228.57 267.84 228.7 267.84 228.47 267.83 220.07 267.83 220.01 267.88 219.97 274.7 215.18 274.7 215.18 286.77 206.51"></polygon><rect class="cls-1" x="303.94" y="182.27" width="14.14" height="14.14" transform="translate(-42.79 275.37) rotate(-45)"></rect><polygon class="cls-1" points="210.95 277.98 260.49 242.7 260.69 242.56 260.69 242.8 260.69 251.19 260.69 251.25 260.64 251.29 253.79 256.17 211.09 286.56 210.9 286.7 210.9 286.46 210.9 278.08 210.9 278.01 210.95 277.98"></polygon></g></svg>